<svg xmlns="http://www.w3.org/2000/svg" width="1024" height="1024" viewBox="0 0 1024 1024">
  <path d="M318 477l28-178 124 92c28-13 58-13 86 0l124-92 27 178c45 37 65 91 48 151-25 89-112 139-243 139S294 717 269 628c-17-60 4-114 49-151z" fill="#242424"/>
  <ellipse cx="428" cy="529" rx="34" ry="48" fill="#FAF9F6"/>
  <ellipse cx="596" cy="529" rx="34" ry="48" fill="#FAF9F6"/>
  <circle cx="438" cy="514" r="9" fill="#A8DADC"/>
  <circle cx="606" cy="514" r="9" fill="#A8DADC"/>
  <path d="M488 620l24 13 24-13M512 634c-4 33-31 43-52 17M512 634c4 33 31 43 52 17" fill="none" stroke="#FAF9F6" stroke-width="15" stroke-linecap="round" stroke-linejoin="round"/>
  <path d="M279 748h466c-16 77-75 119-233 119s-217-42-233-119z" fill="#FAF9F6" stroke="#D8C4B6" stroke-width="18" stroke-linejoin="round"/>
  <path d="M310 762h404" stroke="#A8DADC" stroke-width="24" stroke-linecap="round"/>
</svg>
